<svg xmlns="http://www.w3.org/2000/svg" viewBox="0 0 1616 486"><defs><style>.a{fill:#fff;}</style></defs><path class="a" d="M45.73,315.86c0-15.34.17-30.68-.11-46-.08-4.48,1.55-7.17,5.26-9.21,6.26-3.45,12.38-7.17,18.68-10.56,3.31-1.78,4.59-4,4.56-7.94q-.32-39.76,0-79.53c0-2.35,1.53-5.72,3.41-6.85,12.11-7.29,24.51-14.09,36.82-21,11.74-6.62,23.55-13.11,35.15-20a8.08,8.08,0,0,0,3.32-5.71c.36-8.49.38-17,.06-25.5-.16-4.12,1.45-6.54,4.84-8.39,13.72-7.5,27.4-15.09,41.11-22.62,12.83-7.06,25.77-13.91,38.46-21.23,4.34-2.5,8-3.07,12.46-.54,19.93,11.42,39.94,22.68,59.89,34,6.22,3.54,12.25,7.44,18.61,10.69,3.69,1.89,4.92,4.33,4.78,8.31-.29,8.32-.05,16.67-.35,25-.12,3.32,1.07,5.09,3.93,6.66,23.76,13.06,47.42,26.3,71.16,39.4,3,1.66,3.36,4.12,3.35,7.11-.07,25.84,0,51.69-.16,77.53,0,5.39,1.17,9.08,6.6,11.43,6.38,2.76,12.32,6.55,18.53,9.74,4,2.08,6.28,4.81,6.3,9.75.07,27.33.46,54.66.62,82a116.87,116.87,0,0,1-.94,11.93c-.59,6-4.1,10.3-9,13.1C411,390,388.7,402.32,366.56,414.86c-8.94,5.06-17.54,5.16-26.36-.33-4.65-2.89-9.71-5.12-14.53-7.73a11.23,11.23,0,0,0-11.85.33c-19.35,11.41-38.81,22.65-58,34.27-7.63,4.6-14.5,5.94-22.72.86-18-11.11-36.51-21.26-54.5-32.33-8.33-5.12-15.84-6.05-24-.08A96.68,96.68,0,0,1,141,418.22a8.27,8.27,0,0,1-6.68.08c-26.18-14.91-51.9-30.64-78.45-44.83-8.64-4.62-10.76-9.78-10.31-18.61C46.21,341.89,45.72,328.86,45.73,315.86ZM163.85,235.1l1.29,0c0,16.48.2,33-.09,49.45-.15,8.53,3,14.64,10.41,18.88,18.31,10.49,36.61,21,54.79,31.75,8.94,5.27,17.46,5.13,26.35-.16,18.45-11,37.08-21.62,55.55-32.56,4.05-2.39,7.9-5.45,8-10.76.34-23.32.47-46.64.83-70,.14-8.84-4-14.29-12-17.56-3.82-1.56-7.31-3.94-10.92-6q-22.51-12.92-45-25.86c-7-4-13.55-3-20.33.8-18.43,10.32-37,20.38-55.49,30.58-5.88,3.24-10.82,7.46-11.84,14.53C164.55,223.83,164.33,229.49,163.85,235.1Zm25.71,152a30.16,30.16,0,0,0-3-2.26c-25.88-14.69-51.74-29.42-77.69-44-4.22-2.37-6-5.09-6-10.21.28-29.82.15-59.65.11-89.48,0-6.25-1.7-7.45-7.15-4.56a181.45,181.45,0,0,0-18.37,11c-1.6,1.1-2.55,4.19-2.56,6.38q-.21,45.74.11,91.46a8.59,8.59,0,0,0,3.64,6.15c14.29,8.46,28.8,16.56,43.24,24.77,12.86,7.32,25.65,14.76,38.63,21.86,2.26,1.24,5.83,2.22,7.9,1.3,6.88-3.08,13.36-7.07,20-10.76C188.76,388.63,188.94,388.05,189.56,387.14ZM332.11,126.75H332a20.42,20.42,0,0,1,0-4c1.41-7.15-1.8-11.25-8-14.69-25.4-14.17-50.51-28.86-75.92-43-2.46-1.37-6.49-1.28-9.29-.35-4.35,1.44-8.36,4-12.37,6.4-20.05,11.8-39.61,24.55-60.26,35.17-9.92,5.1-13.4,10.56-12.76,21.47.83,14.4.33,14.53,13.19,7.37,21.19-11.81,41.88-24.52,62.67-37,9.91-6,19.36-6.62,29.42,0,12.79,8.37,25.9,16.27,39.06,24.06,9.72,5.75,19.74,11,29.64,16.47,3.14,1.73,4.71.81,4.66-2.83C332.08,132.75,332.11,129.75,332.11,126.75Zm78.3,171.77c0-15.33-.09-30.65.06-46,0-4-1-6.51-4.91-8.17-4.73-2-9.18-4.67-13.73-7.09-5.73-3-6.74-2.46-6.75,4.2,0,27.32-.46,54.65.23,82,.24,9.91-2.05,15.76-11.51,20.57-23.26,11.79-45.78,25-68.57,37.74a12.21,12.21,0,0,0-3.53,2.69c-3.05,3.75-2.22,5.91,2.2,7.89a45.78,45.78,0,0,1,8.9,5.3c3,2.27,6,3.61,9.68,2.2a59.9,59.9,0,0,0,8.12-3.78c24.81-14.22,49.51-28.65,74.44-42.65,4.16-2.34,5.52-4.89,5.45-9.41C410.28,328.84,410.41,313.68,410.41,298.52Zm-26-97.27c0-7.83-.13-15.66.05-23.48.08-3.47-1.15-5.54-4.4-6.88a79.73,79.73,0,0,1-9.26-4.81c-10.07-5.8-20-11.84-30.18-17.49-6.15-3.42-7.55-2.44-7.58,4.43-.08,15-.28,30-.07,44.95a8.18,8.18,0,0,0,3.3,6c14.15,8.36,28.52,16.37,42.83,24.47,4.06,2.3,5.21,1.65,5.27-3.18C384.43,217.24,384.36,209.24,384.37,201.25ZM244,414.62a24.19,24.19,0,0,0,4-1.48c13.12-7.79,26.27-15.52,39.25-23.54,4.29-2.66,3.94-4.14-.43-6.5-5.68-3.08-11.32-6.27-16.93-9.5-6.05-3.48-11.88-7.38-18.11-10.5-3.06-1.52-7.69-3.41-10.09-2.17-14,7.2-27.62,15.14-41.18,23.16-4.08,2.41-3.74,4.48.38,6.89,10.46,6.14,20.91,12.31,31.48,18.27C236.07,411.35,240.13,412.87,244,414.62ZM152.37,146c-2.32,1.18-3.65,1.78-4.91,2.5-12.42,7.06-24.61,14.58-37.35,21-5,2.51-6.84,5.17-6.74,10.49.28,14.42.19,28.84.19,43.27,0,5.2,1.2,6.17,5.81,3.6,13.51-7.5,27-15.12,40.23-23.06,1.79-1.07,3.2-4.27,3.24-6.51.28-15.16.17-30.31.13-45.47C153,150.26,152.65,148.67,152.37,146Z"/><path class="a" d="M1037.52,255.46c.1-27.4,6-53.19,20.56-76.67,10.85-17.51,25.6-30.66,44.88-38.07,13.94-5.36,28.74-7.32,43.59-7.63,14.28-.29,28.67-.53,42.85.83,24.61,2.38,44.91,13.88,60.94,32.66,18.82,22.06,27.54,48.11,30,76.69,2.28,26.25-1.64,51.4-12.42,75.43-10.47,23.33-27.34,40.24-50.92,50.38a146.88,146.88,0,0,1-80.15,10.68c-31.15-4.48-57.72-17.92-76.67-43.93-13.07-17.95-19.24-38.57-21.58-60.42C1037.91,268.79,1037.87,262.11,1037.52,255.46Zm68.65-3.55c0,19,2.57,34.33,9,48.6,12.88,28.6,33.81,35.46,63.76,27.21,10.43-2.88,16.2-12.34,21.24-21.53,6.86-12.5,9.85-26.12,11.23-40.15,2.25-23-.7-44.91-13.63-64.61-17.42-26.55-59.57-30.64-78.42,1.18C1109.65,219,1106.91,236.8,1106.17,251.91Z"/><path class="a" d="M1548.89,376h-6.05c-23.5,0-47,0-70.5.06-3.13,0-5.06-.83-6.89-3.64q-22.77-34.89-46-69.51c-6-9-12.47-17.64-18.79-26.41a59.94,59.94,0,0,0-4.24-4.61c-.31,3.21-.65,5.06-.65,6.91q0,44.76,0,89.52c0,7.7,0,7.69-7.46,7.69-17.34,0-34.67-.1-52,.08-3.87,0-5.26-1.06-5.26-5.05q.14-115.29,0-230.56c0-4.06,1.4-5.65,5.54-5.62q26.75.21,53.49,0c4.37,0,5.77,1.67,5.75,5.95-.14,27.17-.07,54.34-.07,81.52v5.77l1.49.72c1.68-1.61,3.65-3,5-4.86,18.67-25.73,37.56-51.3,55.7-77.39,6.19-8.9,13-12.63,24.07-12,18.44,1.07,37,.31,55.48.35,2.09,0,4.17.26,6.76.43a11.15,11.15,0,0,1-.93,2.75q-37.49,49-75,97.92c-1.92,2.5-3.78,5.28-6.28,7.05-4.53,3.19-3.15,5.76-.48,9.32q27.15,36.13,54,72.52c10.52,14.35,20.67,29,30.82,43.61C1547.62,370.41,1547.87,373,1548.89,376Z"/><path class="a" d="M1022.45,376.05h-8.08c-24,0-48-.08-72,.08-3.57,0-5.71-1-7.73-4q-26.46-39.33-53.21-78.47a178.4,178.4,0,0,0-15.12-19.8,52,52,0,0,0-.55,5.4c0,30.18-.15,60.36.08,90.53,0,5.13-1.46,6.49-6.51,6.4q-26-.48-52,0c-4.86.09-5.8-1.6-5.79-6q.16-114.53,0-229.07c0-4.85,1.56-6.3,6.31-6.23,16.83.23,33.67.08,50.5.09,7.21,0,7.37.17,7.38,7.19q0,39.51,0,79c0,2.08.24,4.15.37,6.22l1.24.47c3.3-4.2,6.68-8.33,9.87-12.61q23.14-31,46.18-62.09c2.48-3.34,5-6.7,7.19-10.21,3.89-6.12,9.5-8.39,16.52-8.33,20,.19,40,.22,60,.36a56.11,56.11,0,0,1,5.79.66c0,7.71-5.71,11.52-9.48,16.32-14.82,18.83-29.84,37.5-44.77,56.25-9.32,11.72-18.51,23.56-28,35.15-2.34,2.85-2.62,4.86-.4,7.81q35.43,47.1,70.68,94.32c6.48,8.66,12.8,17.45,19.16,26.2A47.65,47.65,0,0,1,1022.45,376.05Z"/><path class="a" d="M733.5,191.73c-7-2.31-13.64-4.95-20.51-6.64-16.92-4.17-34.06-6.42-51.45-3.4a45,45,0,0,0-12.28,3.9c-12.94,6.45-13.94,22.71-1.52,30.08a117.47,117.47,0,0,0,23.21,10c16.53,5.43,33.88,8.39,48.93,18.07,13.77,8.84,24.87,19.74,28.89,36A83.26,83.26,0,0,1,751,302c-.62,21.07-7.46,39.7-23.52,54.22-11.28,10.19-24.75,16.16-39.22,19.86a171.34,171.34,0,0,1-48.92,5.52c-20.27-.76-40.45-2.48-59.88-9.11-4.6-1.57-6.27-3.87-5.72-9.21,1.37-13.24,1.75-26.58,2.52-39.88.39-6.77.78-7.34,7.3-5.42,8,2.35,15.71,5.36,23.55,8.1,15.79,5.51,32.17,4.53,48.47,4.32,1,0,2-.15,3-.2,17.38-.84,23-8.57,23.38-24.67.25-9.95-7.07-14.34-14.86-17.28-13.36-5-27.06-9.17-40.5-14C606.46,267,588,257.43,577.41,237.5,566,215.94,566,180.64,586.24,160c11.31-11.54,25.42-18.15,40.78-22,28-7,56.35-7,84.77-2.85,7.24,1.06,14.46,2.29,21.6,3.84,1.4.31,3.48,2.49,3.43,3.73-.65,15.47-1.63,30.92-2.56,46.38A13.14,13.14,0,0,1,733.5,191.73Z"/></svg>