<svg xmlns="http://www.w3.org/2000/svg" viewBox="0 0 487 470"><path d="M45.73,315.86c0-15.34.17-30.68-.11-46-.08-4.48,1.55-7.17,5.26-9.21,6.26-3.45,12.38-7.17,18.68-10.56,3.31-1.78,4.59-4,4.56-7.94q-.32-39.76,0-79.53c0-2.35,1.53-5.72,3.41-6.85,12.11-7.29,24.51-14.09,36.82-21,11.74-6.62,23.55-13.11,35.15-20a8.08,8.08,0,0,0,3.32-5.71c.36-8.49.38-17,.06-25.5-.16-4.12,1.45-6.54,4.84-8.39,13.72-7.5,27.4-15.09,41.11-22.62,12.83-7.06,25.77-13.91,38.46-21.23,4.34-2.5,8-3.07,12.46-.54,19.93,11.42,39.94,22.68,59.89,34,6.22,3.54,12.25,7.44,18.61,10.69,3.69,1.89,4.92,4.33,4.78,8.31-.29,8.32-.05,16.67-.35,25-.12,3.32,1.07,5.09,3.93,6.66,23.76,13.06,47.42,26.3,71.16,39.4,3,1.66,3.36,4.12,3.35,7.11-.07,25.84,0,51.69-.16,77.53,0,5.39,1.17,9.08,6.6,11.43,6.38,2.76,12.32,6.55,18.53,9.74,4,2.08,6.28,4.81,6.3,9.75.07,27.33.46,54.66.62,82a116.87,116.87,0,0,1-.94,11.93c-.59,6-4.1,10.3-9,13.1C411,390,388.7,402.32,366.56,414.86c-8.94,5.06-17.54,5.16-26.36-.33-4.65-2.89-9.71-5.12-14.53-7.73a11.23,11.23,0,0,0-11.85.33c-19.35,11.41-38.81,22.65-58,34.27-7.63,4.6-14.5,5.94-22.72.86-18-11.11-36.51-21.26-54.5-32.33-8.33-5.12-15.84-6.05-24-.08A96.68,96.68,0,0,1,141,418.22a8.27,8.27,0,0,1-6.68.08c-26.18-14.91-51.9-30.64-78.45-44.83-8.64-4.62-10.76-9.78-10.31-18.61C46.21,341.89,45.72,328.86,45.73,315.86ZM163.85,235.1l1.29,0c0,16.48.2,33-.09,49.45-.15,8.53,3,14.64,10.41,18.88,18.31,10.49,36.61,21,54.79,31.75,8.94,5.27,17.46,5.13,26.35-.16,18.45-11,37.08-21.62,55.55-32.56,4.05-2.39,7.9-5.45,8-10.76.34-23.32.47-46.64.83-70,.14-8.84-4-14.29-12-17.56-3.82-1.56-7.31-3.94-10.92-6q-22.51-12.92-45-25.86c-7-4-13.55-3-20.33.8-18.43,10.32-37,20.38-55.49,30.58-5.88,3.24-10.82,7.46-11.84,14.53C164.55,223.83,164.33,229.49,163.85,235.1Zm25.71,152a30.16,30.16,0,0,0-3-2.26c-25.88-14.69-51.74-29.42-77.69-44-4.22-2.37-6-5.09-6-10.21.28-29.82.15-59.65.11-89.48,0-6.25-1.7-7.45-7.15-4.56a181.45,181.45,0,0,0-18.37,11c-1.6,1.1-2.55,4.19-2.56,6.38q-.21,45.74.11,91.46a8.59,8.59,0,0,0,3.64,6.15c14.29,8.46,28.8,16.56,43.24,24.77,12.86,7.32,25.65,14.76,38.63,21.86,2.26,1.24,5.83,2.22,7.9,1.3,6.88-3.08,13.36-7.07,20-10.76C188.76,388.63,188.94,388.05,189.56,387.14ZM332.11,126.75H332a20.42,20.42,0,0,1,0-4c1.41-7.15-1.8-11.25-8-14.69-25.4-14.17-50.51-28.86-75.92-43-2.46-1.37-6.49-1.28-9.29-.35-4.35,1.44-8.36,4-12.37,6.4-20.05,11.8-39.61,24.55-60.26,35.17-9.92,5.1-13.4,10.56-12.76,21.47.83,14.4.33,14.53,13.19,7.37,21.19-11.81,41.88-24.52,62.67-37,9.91-6,19.36-6.62,29.42,0,12.79,8.37,25.9,16.27,39.06,24.06,9.72,5.75,19.74,11,29.64,16.47,3.14,1.73,4.71.81,4.66-2.83C332.08,132.75,332.11,129.75,332.11,126.75Zm78.3,171.77c0-15.33-.09-30.65.06-46,0-4-1-6.51-4.91-8.17-4.73-2-9.18-4.67-13.73-7.09-5.73-3-6.74-2.46-6.75,4.2,0,27.32-.46,54.65.23,82,.24,9.91-2.05,15.76-11.51,20.57-23.26,11.79-45.78,25-68.57,37.74a12.21,12.21,0,0,0-3.53,2.69c-3.05,3.75-2.22,5.91,2.2,7.89a45.78,45.78,0,0,1,8.9,5.3c3,2.27,6,3.61,9.68,2.2a59.9,59.9,0,0,0,8.12-3.78c24.81-14.22,49.51-28.65,74.44-42.65,4.16-2.34,5.52-4.89,5.45-9.41C410.28,328.84,410.41,313.68,410.41,298.52Zm-26-97.27c0-7.83-.13-15.66.05-23.48.08-3.47-1.15-5.54-4.4-6.88a79.73,79.73,0,0,1-9.26-4.81c-10.07-5.8-20-11.84-30.18-17.49-6.15-3.42-7.55-2.44-7.58,4.43-.08,15-.28,30-.07,44.95a8.18,8.18,0,0,0,3.3,6c14.15,8.36,28.52,16.37,42.83,24.47,4.06,2.3,5.21,1.65,5.27-3.18C384.43,217.24,384.36,209.24,384.37,201.25ZM244,414.62a24.19,24.19,0,0,0,4-1.48c13.12-7.79,26.27-15.52,39.25-23.54,4.29-2.66,3.94-4.14-.43-6.5-5.68-3.08-11.32-6.27-16.93-9.5-6.05-3.48-11.88-7.38-18.11-10.5-3.06-1.52-7.69-3.41-10.09-2.17-14,7.2-27.62,15.14-41.18,23.16-4.08,2.41-3.74,4.48.38,6.89,10.46,6.14,20.91,12.31,31.48,18.27C236.07,411.35,240.13,412.87,244,414.62ZM152.37,146c-2.32,1.18-3.65,1.78-4.91,2.5-12.42,7.06-24.61,14.58-37.35,21-5,2.51-6.84,5.17-6.74,10.49.28,14.42.19,28.84.19,43.27,0,5.2,1.2,6.17,5.81,3.6,13.51-7.5,27-15.12,40.23-23.06,1.79-1.07,3.2-4.27,3.24-6.51.28-15.16.17-30.31.13-45.47C153,150.26,152.65,148.67,152.37,146Z"/></svg>